Coordinates
version=1
nRows=11
nColumns=40
inDegrees=yes

Units are S.I. units (second, meters, Newtons, ...)
Angles are in degrees.

endheader
time	pelvis_tilt	pelvis_list	pelvis_rotation	pelvis_tx	pelvis_ty	pelvis_tz	hip_flexion_r	hip_adduction_r	hip_rotation_r	knee_angle_r	knee_angle_r_beta	ankle_angle_r	subtalar_angle_r	mtp_angle_r	hip_flexion_l	hip_adduction_l	hip_rotation_l	knee_angle_l	knee_angle_l_beta	ankle_angle_l	subtalar_angle_l	mtp_angle_l	lumbar_extension	lumbar_bending	lumbar_rotation	arm_flex_r	arm_add_r	arm_rot_r	elbow_flex_r	pro_sup_r	wrist_flex_r	wrist_dev_r	arm_flex_l	arm_add_l	arm_rot_l	elbow_flex_l	pro_sup_l	wrist_flex_l	wrist_dev_l
      2.17314286	     -4.87726758	     -4.98817110	      7.26908830	      0.75535727	      0.91948335	      0.48793775	      4.70962180	      3.71716413	    -15.50818722	     16.02091172	     16.02091172	     17.54432436	     -2.24346805	     -3.61228855	     31.79683591	     -5.45036290	     -0.05681291	     19.58495926	     19.58495926	      5.61292842	     -6.40437554	      6.72106854	     -9.50369682	      5.90106252	      2.80774530	     41.22094762	    -12.50959178	      4.92672253	     89.00576409	     43.86423044	      0.00000000	      0.00000000	     -8.16913677	     -7.62905681	    -12.89684128	     31.85056638	     46.40684499	      0.00000000	      0.00000000
      2.18628571	     -4.79681495	     -5.12678949	      6.95803978	      0.75714541	      0.91854458	      0.48667776	      3.87453240	      3.88133807	    -15.34701179	     15.71490757	     15.71490757	     17.95492941	     -1.77475801	     -3.47284484	     31.43112064	     -5.64980229	     -0.18408011	     20.24531457	     20.24531457	      4.90564963	     -6.81887084	      6.28292125	     -9.27724023	      5.87172143	      2.95577012	     40.94827479	    -12.12592276	      5.03908854	     89.63550770	     43.85119885	      0.00000000	      0.00000000	     -8.72824499	     -7.55705208	    -12.86373667	     31.78024839	     46.39062061	      0.00000000	      0.00000000
      2.19942857	     -4.74199502	     -5.24620344	      6.70489603	      0.75890157	      0.91770207	      0.48517441	      3.10299593	      3.98124471	    -15.23628893	     15.48326837	     15.48326837	     18.30655581	     -1.35554515	     -3.29026557	     31.07361777	     -5.79377994	     -0.20447651	     20.83885293	     20.83885293	      4.25300207	     -7.16400711	      5.79517052	     -9.01830952	      5.86098666	      3.02501539	     40.54212785	    -11.85348469	      5.14309597	     90.16837246	     43.84131922	      0.00000000	      0.00000000	     -9.16340740	     -7.51933093	    -12.82436434	     31.74676997	     46.37542115	      0.00000000	      0.00000000
      2.21257143	     -4.74336742	     -5.27455116	      6.45189386	      0.76053697	      0.91703204	      0.48346825	      2.50438942	      3.93654127	    -15.01897697	     15.45523766	     15.45523766	     18.57150941	     -1.12267527	     -3.23409461	     30.72655487	     -5.82315844	     -0.24377488	     21.34777861	     21.34777861	      3.83353173	     -7.41319359	      5.58483066	     -8.71781690	      5.82289848	      3.10660979	     40.11001064	    -11.69530306	      5.24166586	     90.35775156	     43.83603240	      0.00000000	      0.00000000	     -9.46964802	     -7.47865556	    -12.80384786	     31.67442133	     46.36624867	      0.00000000	      0.00000000
      2.22571429	     -4.66892233	     -5.34694323	      6.26083049	      0.76218361	      0.91660539	      0.48162176	      1.84278421	      3.88537604	    -15.14355064	     15.51807488	     15.51807488	     19.34937916	     -0.30539834	     -1.69482678	     30.22978841	     -5.81952085	      0.01965006	     21.60598940	     21.60598940	      2.38353628	     -8.50645991	      2.54349967	     -8.60153205	      5.77788314	      3.43012606	     39.06092855	    -11.95317907	      5.17913454	     91.98436750	     43.86406321	      0.00000000	      0.00000000	     -9.55360839	     -7.49443431	    -12.32426175	     31.85875788	     46.27965143	      0.00000000	      0.00000000
      2.23885714	     -4.65634636	     -5.30869034	      6.00262860	      0.76366991	      0.91644974	      0.47974000	      1.35606036	      3.71834654	    -14.85898177	     15.70404311	     15.70404311	     19.46679715	     -0.25204153	     -1.72108728	     29.89152316	     -5.77440562	      0.03914361	     22.14735846	     22.14735846	      2.52063991	     -8.81083402	      2.38775509	     -8.37721280	      5.61172483	      3.40362780	     38.37881925	    -11.81868134	      5.30986914	     91.83754076	     43.86513850	      0.00000000	      0.00000000	     -9.68969433	     -7.44796875	    -12.29584890	     31.76846532	     46.27268089	      0.00000000	      0.00000000
      2.25200000	     -4.59900922	     -5.26799953	      5.80609383	      0.76490642	      0.91658899	      0.47776891	      0.96584012	      3.51176870	    -14.66497591	     16.11818783	     16.11818783	     19.51081407	     -0.32955760	     -1.73141614	     29.64231442	     -5.70168727	      0.13381714	     22.88299549	     22.88299549	      2.73445709	     -9.29143839	      2.16219388	     -8.28287724	      5.39296521	      3.33405246	     37.45231221	    -11.66861659	      5.49469310	     91.63107418	     43.86736421	      0.00000000	      0.00000000	     -9.68264554	     -7.44317308	    -12.24651289	     31.68633296	     46.26471498	      0.00000000	      0.00000000
      2.26514286	     -4.66664673	     -5.22864558	      5.57187617	      0.76578547	      0.91675420	      0.47570435	      1.01482973	      3.20660450	    -14.41531253	     17.05312192	     17.05312192	     19.53674550	     -0.62161365	     -1.81059836	     29.50953369	     -5.58715049	      0.32364751	     23.55784762	     23.55784762	      3.10095355	     -9.97152126	      1.91825869	     -8.12018613	      5.19112143	      3.29104651	     36.53649448	    -11.69546340	      5.65186102	     91.38085369	     43.87701225	      0.00000000	      0.00000000	     -9.48723823	     -7.46358734	    -12.14119875	     31.57934600	     46.25092495	      0.00000000	      0.00000000
      2.27828571	     -4.78282673	     -5.10859694	      5.32812894	      0.76635857	      0.91714129	      0.47349174	      1.41744805	      2.73011007	    -14.08334942	     18.52575676	     18.52575676	     19.51215788	     -1.17304447	     -2.03649292	     29.30299696	     -5.36071034	      0.49016219	     23.99513349	     23.99513349	      3.48256985	    -10.70165354	      1.81031500	     -7.92421678	      4.94971946	      3.35288516	     35.47305685	    -11.90246927	      5.81255792	     91.02051180	     43.89597568	      0.00000000	      0.00000000	     -9.13886913	     -7.43829984	    -11.95148739	     31.42557458	     46.22627908	      0.00000000	      0.00000000
      2.29142857	     -4.77908550	     -5.02475286	      5.07887916	      0.76686381	      0.91794316	      0.47131620	      1.74783650	      2.29092554	    -13.79377582	     20.04626040	     20.04626040	     19.29775832	     -1.66940066	     -2.35456721	     28.90974039	     -5.21468736	      0.54330741	     24.32740476	     24.32740476	      4.00372698	    -11.22621873	      1.69024488	     -7.90886117	      4.69151123	      3.34112993	     34.33220802	    -12.05340206	      5.98792755	     90.57665149	     43.91250577	      0.00000000	      0.00000000	     -8.73574637	     -7.44543030	    -11.80490202	     31.39783854	     46.20946665	      0.00000000	      0.00000000
      2.30457143	     -4.86439129	     -4.89731158	      4.79441734	      0.76703094	      0.91869450	      0.46907750	      2.54106797	      1.71156893	    -13.43338180	     22.20910717	     22.20910717	     18.96403178	     -2.45179616	     -2.99301620	     28.55161437	     -5.01759626	      0.53733994	     24.53758719	     24.53758719	      4.54719682	    -11.70263154	      1.63137391	     -7.88503144	      4.44942097	      3.42761566	     33.05276834	    -12.31617899	      6.16534506	     89.92283856	     43.93803928	      0.00000000	      0.00000000	     -8.25167928	     -7.44870788	    -11.61950645	     31.42847982	     46.18793247	      0.00000000	      0.00000000
